<svg width="82" height="47" viewBox="0 0 82 47" fill="none" xmlns="http://www.w3.org/2000/svg">
<path d="M0.928501 21.4148C0.843694 21.4177 0.763018 21.4523 0.702271 21.5119C0.641524 21.5714 0.605081 21.6517 0.600079 21.7368L0 26.3149L0.600079 30.7993C0.604159 30.8848 0.640311 30.9655 0.701253 31.0253C0.762194 31.0851 0.843396 31.1194 0.928501 31.1213C1.01237 31.1177 1.09201 31.0833 1.15248 31.0248C1.21295 30.9662 1.25009 30.8875 1.25692 30.8034L1.96648 26.319L1.25692 21.7368C1.25018 21.6523 1.21319 21.5731 1.15281 21.5139C1.09242 21.4546 1.01273 21.4194 0.928501 21.4148ZM4.30192 18.9117C4.29272 18.8268 4.25266 18.7483 4.18943 18.6913C4.1262 18.6343 4.04425 18.6027 3.95931 18.6027C3.87436 18.6027 3.79241 18.6343 3.72918 18.6913C3.66595 18.7483 3.62589 18.8268 3.61669 18.9117L2.80578 26.3149L3.61669 33.5551C3.6226 33.6443 3.66104 33.7281 3.72464 33.7906C3.78824 33.853 3.87252 33.8897 3.96133 33.8935C4.04865 33.8896 4.13142 33.8532 4.19359 33.7915C4.25577 33.7297 4.29293 33.6469 4.29786 33.5592L5.21826 26.3149L4.30192 18.9117ZM17.0049 12.0833C16.8424 12.0853 16.6871 12.1506 16.5714 12.2654C16.4557 12.3801 16.3888 12.5355 16.3846 12.6988L15.7399 26.3231L16.3846 35.1287C16.3846 35.2941 16.45 35.4528 16.5663 35.5698C16.6826 35.6867 16.8404 35.7524 17.0049 35.7524C17.1695 35.7524 17.3273 35.6867 17.4436 35.5698C17.5599 35.4528 17.6253 35.2941 17.6253 35.1287L18.3511 26.3231L17.6253 12.6988C17.6192 12.5362 17.5516 12.3819 17.4363 12.2676C17.3211 12.1532 17.1668 12.0873 17.0049 12.0833ZM10.4284 16.8163C10.3028 16.8193 10.183 16.8703 10.0934 16.9589C10.0037 17.0474 9.95102 17.167 9.94591 17.2933L9.22419 26.319L9.94591 35.0594C9.95107 35.1853 10.0039 35.3044 10.0936 35.3923C10.1834 35.4802 10.3031 35.5303 10.4284 35.5323C10.5531 35.5284 10.6718 35.4777 10.7611 35.3902C10.8504 35.3026 10.9039 35.1846 10.9109 35.0594L11.7218 26.3272L10.9109 17.3014C10.9068 17.174 10.8547 17.053 10.7651 16.9629C10.6755 16.8728 10.5551 16.8204 10.4284 16.8163ZM23.6828 35.7402C23.883 35.7381 24.0745 35.6578 24.2167 35.5163C24.359 35.3748 24.4409 35.1831 24.4451 34.982L25.0736 26.3272L24.4451 8.19004C24.4399 7.98919 24.3577 7.79813 24.2156 7.65681C24.0736 7.5155 23.8827 7.43487 23.6828 7.43178C23.4828 7.43284 23.2912 7.51294 23.1493 7.6548C23.0075 7.79666 22.9268 7.9889 22.9246 8.19004L22.3651 26.3272L22.9246 34.986C22.9278 35.1865 23.009 35.3777 23.1507 35.5187C23.2924 35.6596 23.4835 35.7392 23.6828 35.7402ZM37.363 35.781C37.637 35.7789 37.8992 35.6688 38.0932 35.4744C38.2873 35.28 38.3978 35.0169 38.401 34.7414L38.8389 26.3313L38.401 5.38529C38.3845 5.11925 38.2677 4.86954 38.0745 4.68703C37.8813 4.50451 37.6261 4.40291 37.361 4.40291C37.0959 4.40291 36.8407 4.50451 36.6475 4.68703C36.4543 4.86954 36.3375 5.11925 36.321 5.38529L35.9155 26.3231L36.321 34.7414C36.3242 35.0176 36.4353 35.2813 36.6302 35.4758C36.8252 35.6703 37.0884 35.7799 37.363 35.781ZM30.4702 35.7484C30.7079 35.7473 30.9357 35.6522 31.1041 35.4836C31.2726 35.3149 31.3682 35.0864 31.3704 34.8474L31.9056 26.3231L31.3704 8.05959C31.3704 7.81956 31.2755 7.58937 31.1067 7.41964C30.9379 7.24992 30.709 7.15457 30.4702 7.15457C30.2315 7.15457 30.0026 7.24992 29.8338 7.41964C29.6649 7.58937 29.5701 7.81956 29.5701 8.05959L29.0917 26.3313L29.5701 34.8515C29.5723 35.0901 29.668 35.3182 29.8366 35.4862C30.0052 35.6542 30.2329 35.7484 30.4702 35.7484ZM13.7045 35.6709C13.848 35.6678 13.9849 35.6094 14.0868 35.5077C14.1886 35.4061 14.2478 35.2689 14.2519 35.1246L15.0263 26.319L14.2519 17.9374C14.2401 17.7991 14.177 17.6702 14.0753 17.5764C13.9736 17.4825 13.8405 17.4304 13.7025 17.4304C13.5644 17.4304 13.4314 17.4825 13.3296 17.5764C13.2279 17.6702 13.1649 17.7991 13.1531 17.9374L12.4679 26.319L13.1531 35.1246C13.1573 35.2696 13.2169 35.4073 13.3197 35.5091C13.4224 35.6109 13.5603 35.6689 13.7045 35.6709ZM7.18068 35.1858C7.28821 35.1858 7.39134 35.1428 7.46738 35.0664C7.54342 34.9899 7.58613 34.8862 7.58613 34.7781L8.45787 26.3149L7.59019 17.5297C7.59019 17.4216 7.54747 17.3179 7.47143 17.2414C7.3954 17.165 7.29226 17.122 7.18473 17.122C7.0772 17.122 6.97407 17.165 6.89803 17.2414C6.82199 17.3179 6.77927 17.4216 6.77927 17.5297L6.00485 26.319L6.77116 34.7822C6.77169 34.8357 6.78271 34.8886 6.80357 34.9379C6.82444 34.9872 6.85475 35.0318 6.89278 35.0693C6.93081 35.1068 6.9758 35.1363 7.0252 35.1563C7.0746 35.1763 7.12743 35.1863 7.18068 35.1858ZM33.9045 7.74569C33.6478 7.74568 33.4015 7.84764 33.2192 8.02936C33.037 8.21109 32.9335 8.45786 32.9314 8.71593L32.4975 26.3313L32.9314 34.7985C32.9473 35.0466 33.0566 35.2792 33.2369 35.4492C33.4173 35.6192 33.6552 35.7138 33.9024 35.7138C34.1497 35.7138 34.3876 35.6192 34.568 35.4492C34.7483 35.2792 34.8576 35.0466 34.8735 34.7985L35.3601 26.3272L34.8695 8.72816C34.8705 8.46938 34.7696 8.2207 34.5887 8.03657C34.4079 7.85243 34.1618 7.74784 33.9045 7.74569ZM20.3297 35.7606C20.5133 35.7574 20.6884 35.6824 20.8179 35.5515C20.9474 35.4206 21.021 35.244 21.023 35.0594L21.7002 26.3109L21.023 9.5965C21.0178 9.41402 20.9429 9.24058 20.8138 9.11226C20.6846 8.98394 20.5112 8.91061 20.3297 8.90754C20.1482 8.90963 19.9747 8.98277 19.846 9.11141C19.7173 9.24005 19.6436 9.41406 19.6404 9.5965L19.0566 26.3231L19.6404 35.0594C19.6404 35.244 19.7128 35.4211 19.8418 35.5524C19.9708 35.6836 20.1462 35.7585 20.3297 35.7606ZM27.8956 34.9453L28.4754 26.3435L27.8956 7.59077C27.8956 7.36913 27.808 7.15656 27.6521 6.99983C27.4962 6.8431 27.2848 6.75505 27.0644 6.75505C26.8439 6.75505 26.6325 6.8431 26.4766 6.99983C26.3208 7.15656 26.2332 7.36913 26.2332 7.59077L25.7142 26.3435L26.2332 34.933C26.2332 35.1547 26.3208 35.3673 26.4766 35.524C26.6325 35.6807 26.8439 35.7688 27.0644 35.7688C27.2848 35.7688 27.4962 35.6807 27.6521 35.524C27.808 35.3673 27.8956 35.1547 27.8956 34.933V34.9453ZM71.9122 15.5199C70.573 15.5193 69.247 15.7867 68.0117 16.3067C67.6165 11.8522 65.5769 7.70785 62.2945 4.68977C59.0122 1.67169 54.7249 -0.00138232 50.2769 8.56952e-07C48.0703 0.00689277 45.8837 0.421445 43.826 1.223C43.0638 1.5206 42.8611 1.82635 42.857 2.41747V34.5906C42.8612 34.8893 42.9741 35.1762 43.1743 35.397C43.3745 35.6178 43.6482 35.7573 43.9436 35.7891H71.9203C74.5957 35.7891 77.1616 34.7205 79.0535 32.8184C80.9453 30.9163 82.0081 28.3364 82.0081 25.6464C82.0081 22.9563 80.9453 20.3765 79.0535 18.4744C77.1616 16.5722 74.5957 15.5036 71.9203 15.5036L71.9122 15.5199ZM40.8054 2.3767C40.5124 2.37986 40.2323 2.49801 40.0247 2.70593C39.8172 2.91385 39.6986 3.19508 39.6944 3.48964L39.2403 26.319L39.6944 34.6273C39.6944 34.9235 39.8115 35.2077 40.0198 35.4171C40.2282 35.6266 40.5107 35.7443 40.8054 35.7443C41.1 35.7443 41.3826 35.6266 41.5909 35.4171C41.7993 35.2077 41.9163 34.9235 41.9163 34.6273L42.411 26.3353L41.9163 3.50594C41.9164 3.20856 41.7997 2.92317 41.5917 2.71174C41.3837 2.50032 41.1011 2.37992 40.8054 2.3767ZM8.14567 42.2547C6.95362 41.9694 6.62925 41.8185 6.62925 41.3456C6.62925 41.0114 6.89685 40.6648 7.70372 40.6648C8.02741 40.666 8.3472 40.7359 8.64209 40.8701C8.93698 41.0043 9.2003 41.1997 9.41475 41.4435L10.5014 40.3836C10.156 39.9994 9.73247 39.6942 9.2596 39.4889C8.78672 39.2835 8.27548 39.1827 7.76048 39.1932C6.27245 39.1932 5.07229 40.037 5.07229 41.4109C5.07229 42.9029 6.03728 43.3432 7.42395 43.6694C8.81062 43.9955 9.10255 44.2116 9.10255 44.6967C9.10255 45.2715 8.69709 45.512 7.78886 45.512C7.42459 45.5219 7.06277 45.4493 6.73013 45.2997C6.39748 45.1502 6.1025 44.9273 5.86699 44.6478L4.78036 45.6221C5.12084 46.0719 5.56457 46.4323 6.07365 46.6722C6.58272 46.9122 7.14201 47.0246 7.70372 47C9.75939 47 10.6595 46.0257 10.6595 44.5866C10.6595 42.9437 9.32555 42.532 8.14567 42.2547ZM15.0709 39.1932C13.0193 39.1932 11.8029 40.7912 11.8029 43.0986C11.8029 45.406 13.0193 47 15.0709 47C17.1225 47 18.3389 45.4019 18.3389 43.0986C18.3389 40.7953 17.1225 39.1932 15.0709 39.1932ZM15.0709 45.4957C13.8545 45.4957 13.3518 44.448 13.3518 43.0986C13.3518 41.7492 13.8545 40.6975 15.0709 40.6975C16.2873 40.6975 16.7901 41.7452 16.7901 43.0986C16.7901 44.4521 16.2873 45.4957 15.0709 45.4957ZM24.3965 43.5634C24.3965 44.7864 23.8045 45.5161 22.8517 45.5161C21.8988 45.5161 21.3109 44.7497 21.3109 43.5389V39.3114H19.8229V43.5634C19.8229 45.7648 21.0393 47 22.8679 47C24.7816 47 25.921 45.7322 25.921 43.5389V39.3114H24.4127L24.3965 43.5634ZM32.3962 42.5116C32.3962 42.9192 32.3962 43.8854 32.3962 44.1667C32.2989 43.971 32.0556 43.5919 31.8731 43.3106L29.2052 39.3114H27.8023V46.8818H29.2863V43.5511C29.2863 43.1435 29.262 42.1773 29.262 41.896C29.3593 42.0917 29.6066 42.4667 29.7891 42.7521L32.5543 46.8818H33.8964V39.3114H32.4124L32.3962 42.5116ZM38.1699 39.3114H35.8304V46.8818H38.0766C40.0147 46.8818 41.9285 45.7566 41.9285 43.0986C41.9285 40.3265 40.335 39.3114 38.1861 39.3114H38.1699ZM38.0604 45.4264H37.3387V40.7668H38.1496C39.739 40.7668 40.3959 41.5332 40.3959 43.0823C40.3796 44.4806 39.6579 45.4101 38.0766 45.4101L38.0604 45.4264ZM46.5751 40.7138C46.8594 40.6968 47.1423 40.7653 47.3878 40.9105C47.6332 41.0557 47.8302 41.271 47.9536 41.5291L49.3484 40.8809C49.1121 40.3542 48.7225 39.9121 48.2309 39.6129C47.7393 39.3137 47.169 39.1716 46.5953 39.2054C44.6289 39.2054 43.2543 40.8035 43.2543 43.1109C43.2543 45.4957 44.5761 47.0122 46.5426 47.0122C47.1243 47.0443 47.7019 46.8982 48.1993 46.5932C48.6966 46.2883 49.0902 45.8388 49.3281 45.3041L48.059 44.5458C47.6536 45.2185 47.2481 45.5079 46.5872 45.5079C45.456 45.5079 44.7991 44.4684 44.7991 43.1109C44.7991 41.7533 45.456 40.6975 46.5832 40.6975L46.5751 40.7138ZM52.1582 39.3277H50.6824V46.8818H55.2073V45.3856H52.1866L52.1582 39.3277ZM59.1443 39.2095C57.0886 39.2095 55.8722 40.8075 55.8722 43.1149C55.8722 45.4223 57.0886 47.0163 59.1443 47.0163C61.2 47.0163 62.4123 45.4183 62.4123 43.1149C62.4123 40.8116 61.2243 39.1932 59.1524 39.1932L59.1443 39.2095ZM59.1443 45.512C57.9279 45.512 57.4211 44.4643 57.4211 43.1149C57.4211 41.7655 57.9279 40.7138 59.1443 40.7138C60.3607 40.7138 60.8634 41.7615 60.8634 43.1149C60.8634 44.4684 60.3647 45.4957 59.1524 45.4957L59.1443 45.512ZM68.4698 43.5797C68.4698 44.8027 67.8779 45.5324 66.921 45.5324C65.9641 45.5324 65.3843 44.766 65.3843 43.5552V39.3114H63.88V43.5634C63.88 45.7648 65.0964 47 66.921 47C68.8347 47 69.9741 45.7322 69.9741 43.5389V39.3114H68.4698V43.5797ZM74.2111 39.3277H71.8554V46.8818H74.1017C76.0397 46.8818 77.9535 45.7566 77.9535 43.0986C77.9778 40.3265 76.3844 39.3114 74.2355 39.3114L74.2111 39.3277ZM74.1017 45.4427H73.388V40.7668H74.199C75.7884 40.7668 76.4452 41.5332 76.4452 43.0823C76.429 44.4806 75.7073 45.4101 74.126 45.4101L74.1017 45.4427Z" fill="white"/>
</svg>
