<svg width="116" height="35" viewBox="0 0 116 35" fill="none" xmlns="http://www.w3.org/2000/svg">
<path d="M17.3957 0C7.78851 0 0 7.83496 0 17.4997C0 27.1654 7.78851 35 17.3957 35C27.0032 35 34.7913 27.1655 34.7913 17.4997C34.7913 7.83558 27.0036 0.000835246 17.3954 0.000835246L17.3957 0ZM25.3732 25.2396C25.0608 25.7551 24.3931 25.9166 23.8823 25.6025C19.7974 23.0909 14.6557 22.5236 8.60049 23.9151C8.01699 24.0497 7.43536 23.6817 7.30242 23.0949C7.16885 22.5079 7.53299 21.9228 8.11795 21.789C14.7444 20.265 20.4285 20.921 25.0136 23.7396C25.5246 24.0551 25.6866 24.7259 25.373 25.24L25.3732 25.2396ZM27.5024 20.4752C27.1089 21.1174 26.2743 21.3189 25.6368 20.9245C20.9619 18.0336 13.8333 17.1963 8.30262 18.8852C7.58534 19.1031 6.82776 18.6965 6.61006 17.9762C6.39403 17.2546 6.79848 16.4939 7.51451 16.2745C13.8321 14.3461 21.6858 15.2802 27.0556 18.5997C27.6933 18.9947 27.8948 19.8347 27.5022 20.4754L27.5024 20.4752ZM27.6852 15.5134C22.0778 12.1634 12.8286 11.8554 7.47565 13.4897C6.61608 13.752 5.70707 13.2638 5.44658 12.3991C5.18609 11.534 5.67092 10.6201 6.53112 10.3572C12.6759 8.48069 22.8909 8.84325 29.3457 12.6981C30.1189 13.1598 30.3725 14.1643 29.9143 14.941C29.4573 15.7188 28.456 15.9752 27.6854 15.5134H27.6852ZM47.3278 16.1554C44.3243 15.4348 43.7896 14.9291 43.7896 13.8665C43.7896 12.8626 44.7292 12.187 46.1263 12.187C47.4807 12.187 48.8237 12.7 50.2316 13.7562C50.2742 13.7882 50.3276 13.8009 50.3801 13.7925C50.4327 13.7846 50.4792 13.7555 50.51 13.7119L51.9765 11.6322C52.0368 11.5465 52.0204 11.4284 51.9391 11.363C50.2634 10.0104 48.3764 9.35272 46.1708 9.35272C42.9278 9.35272 40.6625 11.3106 40.6625 14.1118C40.6625 17.1158 42.6166 18.1795 45.9934 19.0005C48.8675 19.6665 49.3526 20.2245 49.3526 21.2219C49.3526 22.3271 48.3717 23.0142 46.7931 23.0142C45.0399 23.0142 43.61 22.4201 42.0102 21.0265C41.9706 20.992 41.9161 20.9764 41.8659 20.9793C41.8129 20.9837 41.7645 21.0083 41.7309 21.0491L40.0865 23.0178C40.0175 23.0995 40.0262 23.2215 40.106 23.2922C41.9672 24.9637 44.2564 25.8466 46.7267 25.8466C50.2213 25.8466 52.4795 23.9258 52.4795 20.9527C52.4857 18.443 50.9922 17.0533 47.3341 16.1581L47.3278 16.1554ZM60.3855 13.1754C58.8708 13.1754 57.6284 13.7756 56.6039 15.0054V13.6212C56.6039 13.5119 56.5158 13.4229 56.4074 13.4229H53.7179C53.6093 13.4229 53.5214 13.5119 53.5214 13.6212V29.0019C53.5214 29.1112 53.6093 29.2002 53.7179 29.2002H56.4074C56.5158 29.2002 56.6039 29.1112 56.6039 29.0019V24.1468C57.6286 25.3037 58.8712 25.869 60.3855 25.869C63.2 25.869 66.0492 23.6894 66.0492 19.5229C66.0534 15.3554 63.2033 13.1752 60.3886 13.1752L60.3855 13.1754ZM62.9219 19.5229C62.9219 21.6446 61.6227 23.1252 59.7625 23.1252C57.9235 23.1252 56.5363 21.5773 56.5363 19.5229C56.5363 17.4688 57.9235 15.9207 59.7625 15.9207C61.5926 15.9205 62.9221 17.4351 62.9221 19.5227L62.9219 19.5229ZM73.3518 13.1754C69.7272 13.1754 66.8876 15.9832 66.8876 19.5683C66.8876 23.1143 69.7077 25.8926 73.3074 25.8926C76.9449 25.8926 79.7932 23.0943 79.7932 19.5229C79.7932 15.9639 76.964 13.1759 73.3516 13.1759L73.3518 13.1754ZM73.3518 23.1463C71.4239 23.1463 69.9705 21.588 69.9705 19.5219C69.9705 17.447 71.3737 15.9414 73.3074 15.9414C75.2477 15.9414 76.711 17.4997 76.711 19.5672C76.711 21.6417 75.2984 23.1463 73.352 23.1463H73.3518ZM87.5333 13.4229H84.5738V10.379C84.5738 10.2699 84.4862 10.1809 84.3775 10.1809H81.6885C81.5797 10.1809 81.4914 10.2699 81.4914 10.379V13.4229H80.1983C80.0901 13.4229 80.0024 13.5119 80.0024 13.6212V15.9464C80.0024 16.0555 80.0901 16.1447 80.1983 16.1447H81.4914V22.1612C81.4914 24.5926 82.6943 25.8253 85.0668 25.8253C86.0315 25.8253 86.8318 25.6249 87.5861 25.1946C87.6474 25.1602 87.6854 25.0937 87.6854 25.0231V22.8088C87.6854 22.7405 87.6501 22.6759 87.5919 22.6402C87.5333 22.6032 87.4604 22.6013 87.4004 22.6312C86.8823 22.8935 86.3815 23.0144 85.8217 23.0144C84.9588 23.0144 84.5738 22.6203 84.5738 21.737V16.1458H87.5333C87.642 16.1458 87.7294 16.0567 87.7294 15.9475V13.6224C87.7336 13.5132 87.6463 13.4241 87.5362 13.4241L87.5333 13.4229ZM97.8449 13.4348V13.0609C97.8449 11.9611 98.2641 11.4706 99.2043 11.4706C99.7649 11.4706 100.215 11.5827 100.72 11.7519C100.782 11.7716 100.847 11.7617 100.897 11.7243C100.949 11.6869 100.978 11.627 100.978 11.5634V9.28354C100.978 9.1964 100.923 9.11929 100.839 9.09358C100.306 8.93413 99.6245 8.77051 98.6037 8.77051C96.1197 8.77051 94.8067 10.1777 94.8067 12.8386V13.4111H93.5146C93.4062 13.4111 93.3173 13.5002 93.3173 13.6092V15.9464C93.3173 16.0555 93.4062 16.1447 93.5146 16.1447H94.8067V25.4249C94.8067 25.5342 94.8943 25.6232 95.0028 25.6232H97.6922C97.8009 25.6232 97.8894 25.5342 97.8894 25.4249V16.1453H100.4L104.247 25.4233C103.81 26.3981 103.381 26.592 102.795 26.592C102.321 26.592 101.822 26.4497 101.312 26.1689C101.264 26.1423 101.207 26.1379 101.155 26.154C101.104 26.1722 101.061 26.2107 101.039 26.2608L100.127 28.2726C100.084 28.3677 100.121 28.4793 100.212 28.5286C101.164 29.047 102.023 29.2683 103.084 29.2683C105.07 29.2683 106.168 28.3378 107.135 25.8343L111.801 13.7056C111.824 13.6446 111.817 13.5756 111.78 13.5215C111.743 13.4678 111.684 13.4354 111.618 13.4354H108.819C108.735 13.4354 108.66 13.4891 108.632 13.5683L105.764 21.8097L102.623 13.5629C102.594 13.4862 102.521 13.4354 102.439 13.4354H97.8443L97.8449 13.4348ZM91.8665 13.4229H89.1771C89.0684 13.4229 88.9799 13.5119 88.9799 13.6212V25.4249C88.9799 25.5342 89.0684 25.6232 89.1771 25.6232H91.8665C91.9749 25.6232 92.0636 25.5342 92.0636 25.4249V13.622C92.0637 13.5959 92.0586 13.5701 92.0487 13.546C92.0388 13.5219 92.0243 13.5 92.0059 13.4816C91.9876 13.4631 91.9658 13.4485 91.9419 13.4386C91.9179 13.4287 91.8922 13.4236 91.8663 13.4237L91.8665 13.4229ZM90.537 8.04833C89.4716 8.04833 88.6071 8.91597 88.6071 9.98779C88.6071 11.0602 89.4718 11.9289 90.5371 11.9289C91.6021 11.9289 92.4658 11.0602 92.4658 9.98779C92.4658 8.91618 91.6017 8.04833 90.5381 8.04833H90.537ZM114.097 17.218C113.033 17.218 112.205 16.3581 112.205 15.3138C112.205 14.2696 113.044 13.3999 114.107 13.3999C115.172 13.3999 116 14.2596 116 15.303C116 16.3472 115.161 17.218 114.097 17.218H114.097ZM114.108 13.5892C113.138 13.5892 112.405 14.3645 112.405 15.3138C112.405 16.2628 113.133 17.0276 114.098 17.0276C115.067 17.0276 115.802 16.253 115.802 15.303C115.802 14.354 115.073 13.5892 114.109 13.5892H114.108ZM114.527 15.4988L115.063 16.2528H114.611L114.129 15.5611H113.715V16.2528H113.337V14.2541H114.223C114.685 14.2541 114.988 14.4917 114.988 14.8917C114.99 15.2194 114.801 15.4196 114.529 15.4988L114.527 15.4988ZM114.208 14.5971H113.715V15.2292H114.208C114.453 15.2292 114.6 15.1082 114.6 14.9128C114.6 14.7072 114.453 14.5971 114.208 14.5971L114.208 14.5971Z" fill="white"/>
</svg>
