<svg width="294" height="297" viewBox="0 0 294 297" fill="none" xmlns="http://www.w3.org/2000/svg">
<path d="M21.1209 196.729C21.0185 196.733 20.9211 196.775 20.8478 196.846C20.7744 196.918 20.7305 197.014 20.7244 197.116L20 202.617L20.7244 208.005C20.7293 208.108 20.773 208.205 20.8466 208.276C20.9201 208.348 21.0181 208.389 21.1209 208.392C21.2221 208.387 21.3183 208.346 21.3913 208.276C21.4643 208.205 21.5091 208.111 21.5173 208.01L22.3739 202.622L21.5173 197.116C21.5092 197.015 21.4646 196.92 21.3917 196.849C21.3188 196.777 21.2226 196.735 21.1209 196.729ZM25.1933 193.722C25.1822 193.62 25.1338 193.526 25.0575 193.457C24.9811 193.389 24.8822 193.351 24.7797 193.351C24.6771 193.351 24.5782 193.389 24.5019 193.457C24.4255 193.526 24.3772 193.62 24.3661 193.722L23.3871 202.617L24.3661 211.316C24.3732 211.423 24.4196 211.524 24.4964 211.599C24.5732 211.674 24.6749 211.718 24.7821 211.722C24.8875 211.718 24.9874 211.674 25.0625 211.6C25.1376 211.526 25.1824 211.426 25.1884 211.321L26.2995 202.617L25.1933 193.722ZM40.5283 185.518C40.3322 185.52 40.1446 185.599 40.0049 185.737C39.8653 185.875 39.7845 186.061 39.7794 186.257L39.0012 202.627L39.7794 213.207C39.7794 213.405 39.8583 213.596 39.9988 213.736C40.1392 213.877 40.3297 213.956 40.5283 213.956C40.7269 213.956 40.9174 213.877 41.0579 213.736C41.1983 213.596 41.2772 213.405 41.2772 213.207L42.1534 202.627L41.2772 186.257C41.2698 186.062 41.1882 185.877 41.0491 185.739C40.91 185.602 40.7237 185.523 40.5283 185.518ZM32.5891 191.204C32.4375 191.208 32.2929 191.269 32.1847 191.376C32.0765 191.482 32.0129 191.626 32.0067 191.778L31.1354 202.622L32.0067 213.123C32.0129 213.274 32.0767 213.418 32.185 213.523C32.2933 213.629 32.4379 213.689 32.5891 213.691C32.7396 213.687 32.8829 213.626 32.9908 213.521C33.0986 213.415 33.1631 213.274 33.1716 213.123L34.1505 202.632L33.1716 191.787C33.1667 191.634 33.1038 191.489 32.9956 191.381C32.8874 191.272 32.7421 191.209 32.5891 191.204ZM48.5899 213.941C48.8315 213.939 49.0626 213.842 49.2344 213.672C49.4061 213.502 49.505 213.272 49.5101 213.03L50.2688 202.632L49.5101 180.84C49.5038 180.599 49.4045 180.369 49.233 180.2C49.0615 180.03 48.8311 179.933 48.5899 179.929C48.3484 179.93 48.117 180.027 47.9458 180.197C47.7746 180.368 47.6771 180.599 47.6746 180.84L46.9991 202.632L47.6746 213.035C47.6784 213.276 47.7764 213.506 47.9475 213.675C48.1186 213.844 48.3492 213.94 48.5899 213.941ZM65.1046 213.99C65.4353 213.988 65.7518 213.855 65.9861 213.622C66.2204 213.388 66.3538 213.072 66.3576 212.741L66.8862 202.637L66.3576 177.47C66.3377 177.151 66.1967 176.851 65.9634 176.631C65.7302 176.412 65.4222 176.29 65.1021 176.29C64.7821 176.29 64.4741 176.412 64.2408 176.631C64.0075 176.851 63.8666 177.151 63.8466 177.47L63.3572 202.627L63.8466 212.741C63.8505 213.073 63.9846 213.39 64.2199 213.624C64.4553 213.857 64.773 213.989 65.1046 213.99ZM56.7836 213.951C57.0705 213.95 57.3455 213.835 57.5488 213.633C57.7522 213.43 57.8676 213.156 57.8702 212.869L58.5163 202.627L57.8702 180.683C57.8702 180.395 57.7557 180.118 57.552 179.915C57.3482 179.711 57.0718 179.596 56.7836 179.596C56.4954 179.596 56.219 179.711 56.0152 179.915C55.8115 180.118 55.697 180.395 55.697 180.683L55.1194 202.637L55.697 212.873C55.6996 213.16 55.8152 213.434 56.0187 213.636C56.2222 213.838 56.4971 213.951 56.7836 213.951ZM36.5441 213.858C36.7173 213.854 36.8825 213.784 37.0055 213.662C37.1285 213.54 37.1999 213.375 37.2048 213.202L38.1397 202.622L37.2048 192.551C37.1906 192.385 37.1145 192.23 36.9917 192.118C36.8689 192.005 36.7083 191.942 36.5416 191.942C36.3749 191.942 36.2143 192.005 36.0915 192.118C35.9687 192.23 35.8927 192.385 35.8784 192.551L35.0512 202.622L35.8784 213.202C35.8834 213.376 35.9555 213.541 36.0795 213.664C36.2035 213.786 36.3699 213.856 36.5441 213.858ZM28.6685 213.275C28.7983 213.275 28.9228 213.223 29.0146 213.132C29.1064 213.04 29.158 212.915 29.158 212.785L30.2103 202.617L29.1629 192.062C29.1629 191.932 29.1113 191.807 29.0195 191.715C28.9277 191.623 28.8032 191.572 28.6734 191.572C28.5436 191.572 28.4191 191.623 28.3273 191.715C28.2355 191.807 28.1839 191.932 28.1839 192.062L27.249 202.622L28.1741 212.79C28.1748 212.855 28.1881 212.918 28.2133 212.977C28.2385 213.036 28.275 213.09 28.3209 213.135C28.3669 213.18 28.4212 213.216 28.4808 213.24C28.5404 213.264 28.6042 213.276 28.6685 213.275ZM60.9294 180.306C60.6195 180.306 60.3222 180.429 60.1022 180.647C59.8822 180.865 59.7573 181.162 59.7547 181.472L59.2309 202.637L59.7547 212.81C59.7739 213.108 59.9058 213.387 60.1235 213.592C60.3413 213.796 60.6285 213.909 60.927 213.909C61.2254 213.909 61.5126 213.796 61.7304 213.592C61.9481 213.387 62.08 213.108 62.0992 212.81L62.6866 202.632L62.0943 181.487C62.0956 181.176 61.9738 180.877 61.7555 180.656C61.5371 180.435 61.2401 180.309 60.9294 180.306ZM44.542 213.966C44.7636 213.962 44.975 213.872 45.1313 213.714C45.2876 213.557 45.3765 213.345 45.379 213.123L46.1964 202.612L45.379 182.53C45.3727 182.311 45.2822 182.102 45.1263 181.948C44.9704 181.794 44.7611 181.706 44.542 181.702C44.3229 181.705 44.1135 181.793 43.9581 181.947C43.8027 182.102 43.7137 182.311 43.7099 182.53L43.005 202.627L43.7099 213.123C43.7099 213.345 43.7972 213.558 43.953 213.716C44.1088 213.873 44.3204 213.963 44.542 213.966ZM53.6755 212.986L54.3754 202.651L53.6755 180.12C53.6755 179.854 53.5698 179.598 53.3816 179.41C53.1934 179.222 52.9382 179.116 52.6721 179.116C52.4059 179.116 52.1507 179.222 51.9625 179.41C51.7744 179.598 51.6686 179.854 51.6686 180.12L51.0421 202.651L51.6686 212.971C51.6686 213.238 51.7744 213.493 51.9625 213.681C52.1507 213.87 52.4059 213.976 52.6721 213.976C52.9382 213.976 53.1934 213.87 53.3816 213.681C53.5698 213.493 53.6755 213.238 53.6755 212.971V212.986ZM106.812 189.647C105.196 189.646 103.595 189.967 102.104 190.592C101.627 185.24 99.1643 180.261 95.2018 176.635C91.2394 173.009 86.0637 170.998 80.6942 171C78.0303 171.008 75.3906 171.506 72.9067 172.469C71.9865 172.827 71.7418 173.194 71.7369 173.905V212.56C71.742 212.919 71.8783 213.264 72.1199 213.529C72.3616 213.794 72.692 213.962 73.0486 214H106.822C110.052 214 113.149 212.716 115.433 210.431C117.717 208.145 119 205.046 119 201.814C119 198.582 117.717 195.482 115.433 193.197C113.149 190.911 110.052 189.627 106.822 189.627L106.812 189.647ZM69.2602 173.856C68.9065 173.859 68.5683 174.001 68.3177 174.251C68.0672 174.501 67.9241 174.839 67.919 175.193L67.3708 202.622L67.919 212.604C67.919 212.96 68.0603 213.301 68.3118 213.553C68.5633 213.805 68.9045 213.946 69.2602 213.946C69.6159 213.946 69.957 213.805 70.2085 213.553C70.46 213.301 70.6013 212.96 70.6013 212.604L71.1985 202.641L70.6013 175.212C70.6013 174.855 70.4605 174.512 70.2094 174.258C69.9583 174.004 69.6172 173.859 69.2602 173.856Z" fill="white" fill-opacity="0.05"/>
<path d="M176.121 108.73C176.019 108.733 175.921 108.775 175.848 108.846C175.774 108.918 175.73 109.014 175.724 109.116L175 114.617L175.724 120.005C175.729 120.108 175.773 120.205 175.847 120.276C175.92 120.348 176.018 120.389 176.121 120.392C176.222 120.387 176.318 120.346 176.391 120.276C176.464 120.205 176.509 120.111 176.517 120.01L177.374 114.622L176.517 109.116C176.509 109.015 176.465 108.92 176.392 108.849C176.319 108.777 176.223 108.735 176.121 108.73ZM180.193 105.722C180.182 105.62 180.134 105.526 180.057 105.457C179.981 105.389 179.882 105.351 179.78 105.351C179.677 105.351 179.578 105.389 179.502 105.457C179.426 105.526 179.377 105.62 179.366 105.722L178.387 114.617L179.366 123.316C179.373 123.423 179.42 123.524 179.496 123.599C179.573 123.674 179.675 123.718 179.782 123.722C179.888 123.718 179.987 123.674 180.062 123.6C180.138 123.526 180.182 123.426 180.188 123.321L181.299 114.617L180.193 105.722ZM195.528 97.5178C195.332 97.5203 195.145 97.5987 195.005 97.7366C194.865 97.8745 194.784 98.0612 194.779 98.2574L194.001 114.627L194.779 125.207C194.779 125.405 194.858 125.596 194.999 125.736C195.139 125.877 195.33 125.956 195.528 125.956C195.727 125.956 195.917 125.877 196.058 125.736C196.198 125.596 196.277 125.405 196.277 125.207L197.153 114.627L196.277 98.2574C196.27 98.062 196.188 97.8767 196.049 97.7393C195.91 97.6019 195.724 97.5227 195.528 97.5178ZM187.589 103.205C187.437 103.208 187.293 103.269 187.185 103.376C187.076 103.482 187.013 103.626 187.007 103.777L186.135 114.622L187.007 125.123C187.013 125.274 187.077 125.418 187.185 125.523C187.293 125.629 187.438 125.689 187.589 125.691C187.74 125.687 187.883 125.626 187.991 125.521C188.099 125.415 188.163 125.274 188.172 125.123L189.151 114.632L188.172 103.787C188.167 103.634 188.104 103.489 187.996 103.381C187.887 103.272 187.742 103.209 187.589 103.205ZM203.59 125.941C203.831 125.939 204.063 125.842 204.234 125.672C204.406 125.502 204.505 125.272 204.51 125.03L205.269 114.632L204.51 92.8402C204.504 92.5989 204.405 92.3693 204.233 92.1995C204.062 92.0297 203.831 91.9329 203.59 91.9292C203.348 91.9304 203.117 92.0267 202.946 92.1971C202.775 92.3675 202.677 92.5985 202.675 92.8402L201.999 114.632L202.675 125.035C202.678 125.276 202.776 125.506 202.947 125.675C203.119 125.844 203.349 125.94 203.59 125.941ZM220.105 125.99C220.435 125.988 220.752 125.855 220.986 125.622C221.22 125.388 221.354 125.072 221.358 124.741L221.886 114.636L221.358 89.4703C221.338 89.1507 221.197 88.8507 220.963 88.6314C220.73 88.4121 220.422 88.29 220.102 88.29C219.782 88.29 219.474 88.4121 219.241 88.6314C219.008 88.8507 218.867 89.1507 218.847 89.4703L218.357 114.627L218.847 124.741C218.85 125.073 218.985 125.39 219.22 125.624C219.455 125.857 219.773 125.989 220.105 125.99ZM211.784 125.951C212.071 125.95 212.345 125.835 212.549 125.633C212.752 125.43 212.868 125.156 212.87 124.869L213.516 114.627L212.87 92.6835C212.87 92.3951 212.756 92.1185 212.552 91.9146C212.348 91.7106 212.072 91.5961 211.784 91.5961C211.495 91.5961 211.219 91.7106 211.015 91.9146C210.811 92.1185 210.697 92.3951 210.697 92.6835L210.119 114.636L210.697 124.873C210.7 125.16 210.815 125.434 211.019 125.636C211.222 125.838 211.497 125.951 211.784 125.951ZM191.544 125.858C191.717 125.854 191.883 125.784 192.005 125.662C192.128 125.54 192.2 125.375 192.205 125.202L193.14 114.622L192.205 104.551C192.191 104.385 192.114 104.231 191.992 104.118C191.869 104.005 191.708 103.942 191.542 103.942C191.375 103.942 191.214 104.005 191.092 104.118C190.969 104.231 190.893 104.385 190.878 104.551L190.051 114.622L190.878 125.202C190.883 125.376 190.955 125.541 191.079 125.664C191.204 125.786 191.37 125.856 191.544 125.858ZM183.668 125.275C183.798 125.275 183.923 125.223 184.015 125.132C184.106 125.04 184.158 124.915 184.158 124.785L185.21 114.617L184.163 104.062C184.163 103.932 184.111 103.807 184.019 103.715C183.928 103.623 183.803 103.572 183.673 103.572C183.544 103.572 183.419 103.623 183.327 103.715C183.235 103.807 183.184 103.932 183.184 104.062L182.249 114.622L183.174 124.79C183.175 124.855 183.188 124.918 183.213 124.977C183.238 125.036 183.275 125.09 183.321 125.135C183.367 125.18 183.421 125.216 183.481 125.24C183.54 125.264 183.604 125.276 183.668 125.275ZM215.929 92.3063C215.62 92.3063 215.322 92.4288 215.102 92.6471C214.882 92.8655 214.757 93.162 214.755 93.472L214.231 114.636L214.755 124.81C214.774 125.108 214.906 125.387 215.124 125.592C215.341 125.796 215.629 125.909 215.927 125.909C216.225 125.909 216.513 125.796 216.73 125.592C216.948 125.387 217.08 125.108 217.099 124.81L217.687 114.632L217.094 93.4867C217.096 93.1758 216.974 92.877 216.755 92.6558C216.537 92.4346 216.24 92.3089 215.929 92.3063ZM199.542 125.966C199.764 125.962 199.975 125.872 200.131 125.714C200.288 125.557 200.376 125.345 200.379 125.123L201.196 114.612L200.379 94.53C200.373 94.3108 200.282 94.1024 200.126 93.9482C199.97 93.794 199.761 93.7059 199.542 93.7022C199.323 93.7048 199.113 93.7926 198.958 93.9472C198.803 94.1017 198.714 94.3108 198.71 94.53L198.005 114.627L198.71 125.123C198.71 125.345 198.797 125.558 198.953 125.716C199.109 125.873 199.32 125.963 199.542 125.966ZM208.675 124.986L209.375 114.651L208.675 92.1202C208.675 91.8539 208.57 91.5985 208.382 91.4102C208.193 91.2219 207.938 91.1161 207.672 91.1161C207.406 91.1161 207.151 91.2219 206.963 91.4102C206.774 91.5985 206.669 91.8539 206.669 92.1202L206.042 114.651L206.669 124.971C206.669 125.238 206.774 125.493 206.963 125.681C207.151 125.87 207.406 125.976 207.672 125.976C207.938 125.976 208.193 125.87 208.382 125.681C208.57 125.493 208.675 125.238 208.675 124.971V124.986ZM261.812 101.647C260.196 101.646 258.595 101.968 257.104 102.592C256.627 97.2402 254.164 92.2608 250.202 88.6347C246.239 85.0085 241.064 82.9983 235.694 83C233.03 83.0083 230.391 83.5064 227.907 84.4694C226.987 84.827 226.742 85.1943 226.737 85.9045V124.56C226.742 124.919 226.878 125.264 227.12 125.529C227.362 125.794 227.692 125.962 228.049 126H261.822C265.052 126 268.149 124.716 270.433 122.431C272.717 120.145 274 117.046 274 113.814C274 110.582 272.717 107.482 270.433 105.197C268.149 102.911 265.052 101.627 261.822 101.627L261.812 101.647ZM224.26 85.8556C223.906 85.8594 223.568 86.0013 223.318 86.2511C223.067 86.5009 222.924 86.8388 222.919 87.1927L222.371 114.622L222.919 124.604C222.919 124.96 223.06 125.301 223.312 125.553C223.563 125.805 223.904 125.946 224.26 125.946C224.616 125.946 224.957 125.805 225.208 125.553C225.46 125.301 225.601 124.96 225.601 124.604L226.198 114.641L225.601 87.2123C225.601 86.855 225.46 86.5121 225.209 86.2581C224.958 86.0041 224.617 85.8594 224.26 85.8556Z" fill="white" fill-opacity="0.05"/>
<path d="M69.5 20C52.6557 20 39 33.6552 39 50.4994C39 67.3455 52.6557 81 69.5 81C86.3451 81 100 67.3455 100 50.4994C100 33.6563 86.3458 20.0015 69.4996 20.0015L69.5 20ZM83.4871 63.989C82.9393 64.8875 81.7688 65.169 80.8732 64.6216C73.711 60.2442 64.696 59.2553 54.0793 61.6806C53.0563 61.9152 52.0365 61.2738 51.8034 60.2511C51.5692 59.228 52.2077 58.2083 53.2333 57.9752C64.8516 55.319 74.8174 56.4623 82.8567 61.3747C83.7526 61.9247 84.0367 63.0938 83.4867 63.9897L83.4871 63.989ZM87.2202 55.6854C86.5304 56.8046 85.067 57.1557 83.9493 56.4684C75.7527 51.43 63.2541 49.9706 53.5571 52.9142C52.2995 53.294 50.9712 52.5853 50.5895 51.3299C50.2107 50.0722 50.9198 48.7465 52.1753 48.3641C63.252 45.0032 77.022 46.6312 86.4368 52.4167C87.555 53.105 87.9082 54.5691 87.2199 55.6858L87.2202 55.6854ZM87.5407 47.0377C77.7093 41.1991 61.4925 40.6622 52.1071 43.5107C50.6001 43.9677 49.0063 43.1169 48.5495 41.6099C48.0928 40.1021 48.9429 38.5094 50.4511 38.0512C61.2248 34.7806 79.1348 35.4125 90.4522 42.131C91.8078 42.9356 92.2525 44.6863 91.449 46.0401C90.6478 47.3957 88.8923 47.8425 87.5411 47.0377H87.5407Z" fill="white" fill-opacity="0.05"/>
<path d="M224.5 216C207.656 216 194 229.655 194 246.499C194 263.345 207.656 277 224.5 277C241.345 277 255 263.346 255 246.499C255 229.656 241.346 216.001 224.5 216.001V216ZM238.487 259.989C237.939 260.887 236.769 261.169 235.873 260.622C228.711 256.244 219.696 255.255 209.079 257.681C208.056 257.915 207.036 257.274 206.803 256.251C206.569 255.228 207.208 254.208 208.233 253.975C219.852 251.319 229.817 252.462 237.857 257.375C238.753 257.925 239.037 259.094 238.487 259.99V259.989ZM242.22 251.685C241.53 252.805 240.067 253.156 238.949 252.468C230.753 247.43 218.254 245.971 208.557 248.914C207.299 249.294 205.971 248.585 205.59 247.33C205.211 246.072 205.92 244.747 207.175 244.364C218.252 241.003 232.022 242.631 241.437 248.417C242.555 249.105 242.908 250.569 242.22 251.686V251.685ZM242.541 243.038C232.709 237.199 216.492 236.662 207.107 239.511C205.6 239.968 204.006 239.117 203.55 237.61C203.093 236.102 203.943 234.509 205.451 234.051C216.225 230.781 234.135 231.413 245.452 238.131C246.808 238.936 247.253 240.686 246.449 242.04C245.648 243.396 243.892 243.843 242.541 243.038Z" fill="white" fill-opacity="0.05"/>
</svg>
