<svg width="138" height="159" viewBox="0 0 138 159" fill="none" xmlns="http://www.w3.org/2000/svg">
<circle cx="69" cy="90" r="69" fill="url(#paint0_linear)" fill-opacity="0.04"/>
<circle cx="69" cy="90" r="57" fill="url(#paint1_linear)" fill-opacity="0.12"/>
<circle cx="69" cy="90" r="44" fill="url(#paint2_linear)" fill-opacity="0.2"/>
<path d="M85.3448 0V65.0533C80.611 61.8613 74.9172 60 68.7931 60C52.3394 60 39 73.4307 39 90C39 106.568 52.3394 120 68.7931 120C85.2468 120 98.5862 106.568 98.5862 90V26.6653L135 36.6653V13.3333L85.3448 0Z" fill="url(#paint3_linear)"/>
<defs>
<linearGradient id="paint0_linear" x1="12.5455" y1="138.614" x2="161.523" y2="-6.44318" gradientUnits="userSpaceOnUse">
<stop stop-color="#68C4ED"/>
<stop offset="1" stop-color="#817FFA"/>
</linearGradient>
<linearGradient id="paint1_linear" x1="22.3636" y1="130.159" x2="145.432" y2="10.3295" gradientUnits="userSpaceOnUse">
<stop stop-color="#68C4ED"/>
<stop offset="1" stop-color="#817FFA"/>
</linearGradient>
<linearGradient id="paint2_linear" x1="33" y1="121" x2="128" y2="28.5" gradientUnits="userSpaceOnUse">
<stop stop-color="#68C4ED"/>
<stop offset="1" stop-color="#817FFA"/>
</linearGradient>
<linearGradient id="paint3_linear" x1="44" y1="115" x2="145" y2="-15" gradientUnits="userSpaceOnUse">
<stop stop-color="#5CE1E6"/>
<stop offset="1" stop-color="#896AFE"/>
</linearGradient>
</defs>
</svg>
